<svg xmlns="http://www.w3.org/2000/svg" id="SvgjsSvg8757" width="4096" height="1868.0791624749577" version="1.1" xmlns:xlink="http://www.w3.org/1999/xlink" xmlns:svgjs="http://svgjs.com/svgjs"><defs id="SvgjsDefs8758"></defs><g id="SvgjsG8759" transform="translate(328, 328) scale(34.4)" opacity="1"><defs id="SvgjsDefs3018"><linearGradient id="SvgjsLinearGradientkg1ZbSv04" gradientUnits="userSpaceOnUse" x1="2.8421709430404e-14" y1="267.7" x2="267.7" y2="-1.4210854715202e-14"><stop id="SvgjsStop3021" stop-color="#465968" offset="0.05"></stop><stop id="SvgjsStop3022" stop-color="#2985c7" offset="0.95"></stop></linearGradient></defs><g id="SvgjsG3019" transform="scale(0.21645021645021645)" opacity="1"><g id="SvgjsG3023" class="IPKiUnw-y" transform="translate(0, 0) scale(0.608087599212315)" light-content="false" non-strokable="false" fill="url(#SvgjsLinearGradientkg1ZbSv04)"><path d="M219.6 48.1c-22.9-22.9-53.4-35.5-85.8-35.5S71 25.2 48.1 48.1s-35.5 53.4-35.5 85.8 12.6 62.9 35.5 85.8 53.4 35.5 85.8 35.5 62.9-12.6 85.8-35.5 35.5-53.4 35.5-85.8-12.7-62.9-35.6-85.8z"></path><path d="M133.8 0C59.9 0 0 59.9 0 133.8s59.9 133.8 133.8 133.8 133.8-59.9 133.8-133.8S207.8 0 133.8 0zm0 260.1c-69.7 0-126.3-56.5-126.3-126.3S64.1 7.6 133.8 7.6s126.3 56.5 126.3 126.3-56.5 126.2-126.3 126.2z"></path></g><g id="SvgjsG3024" class="sKVkZDsXKK" transform="translate(11.54318524885069, 16.45552754667975) scale(1.2905189820917822)" light-content="true" non-strokable="false" fill="#ffffff"><path d="M80.5 47.85l-.3-.4-.15-.15L29.9 18.4q-.05 0-.2-.15-.3-.15-.6-.1-.45.05-.8.25-.35.3-.55.55-.15.35-.2.75v57.95q-.1.85 0 .95l.05.25q.35.3.55.4h.1q.5.05.7.15L79.5 50.25q.15-.1.35-.1.2-.15.35-.3.3-.15.45-.6.1-.25.1-.65-.05-.35-.2-.7l-.05-.05m-34.05-16.3l29.7 17.1-29.75 17.2.05-34.3m-3.05-1.8V67.6l-12.85 7.35.05-52.6 12.8 7.4z"></path></g><g id="SvgjsG3025" class="text" transform="translate(334.76975286316025, 121.78058496989733) scale(1)" light-content="false" fill="#000000"><path d="M-136.11 -84.78L-107.61 0L-85.13 0L-56.7 -84.78L-75.32 -84.78L-88.52 -44.96C-90.74 -38.11 -93.37 -28.38 -96.4 -15.77L-97.1 -18.8C-100.06 -30.32 -102.49 -39.04 -104.4 -44.96L-117.42 -84.78Z M-46.3 -84.78L-46.3 0L-28.03 0L-28.03 -84.78Z M44.32 0L44.32 -13.9L8.7 -13.9L8.7 -84.78L-8.76 -84.78L-8.76 0Z M98.45 -70.89L98.45 -84.78L33.4 -84.78L33.4 -70.89L57.22 -70.89L57.22 0L75.5 0L75.5 -70.89Z M108.96 -84.78L108.96 0L127.23 0L127.23 -84.78Z"></path></g></g></g></svg>